<svg width="1127" height="115" viewBox="0 0 1127 115" fill="none" xmlns="http://www.w3.org/2000/svg">
  <!-- Wordmark: BRIDGES STRATEGY -->
  <path d="M223.52 91.832V80.12H239.456C242.4 80.12 244.704 79.256 246.368 77.528C248.032 75.8 248.864 73.688 248.864 71.192C248.864 69.464 248.48 67.928 247.712 66.584C246.944 65.24 245.856 64.184 244.448 63.416C243.104 62.648 241.44 62.264 239.456 62.264H223.52V50.84H238.208C240.704 50.84 242.72 50.232 244.256 49.016C245.792 47.736 246.56 45.816 246.56 43.256C246.56 40.76 245.792 38.904 244.256 37.688C242.72 36.408 240.704 35.768 238.208 35.768H223.52V24.056H241.088C245.44 24.056 249.12 24.856 252.128 26.456C255.2 28.056 257.536 30.2 259.136 32.888C260.736 35.576 261.536 38.552 261.536 41.816C261.536 45.976 260.192 49.496 257.504 52.376C254.816 55.256 250.848 57.24 245.6 58.328L245.984 53.24C251.68 54.328 256.064 56.536 259.136 59.864C262.272 63.192 263.84 67.288 263.84 72.152C263.84 75.864 262.912 79.224 261.056 82.232C259.264 85.176 256.64 87.512 253.184 89.24C249.792 90.968 245.696 91.832 240.896 91.832H223.52ZM212 91.832V24.056H226.88V91.832H212Z" fill="#4F8F9B"/>
  <path d="M285.02 63.896V52.76H299.324C302.332 52.76 304.636 51.992 306.236 50.456C307.9 48.92 308.732 46.84 308.732 44.216C308.732 41.784 307.932 39.768 306.332 38.168C304.732 36.568 302.428 35.768 299.42 35.768H285.02V24.056H301.148C305.628 24.056 309.564 24.92 312.956 26.648C316.348 28.312 319.004 30.648 320.924 33.656C322.844 36.664 323.804 40.12 323.804 44.024C323.804 47.992 322.844 51.48 320.924 54.488C319.004 57.432 316.316 59.736 312.86 61.4C309.404 63.064 305.34 63.896 300.668 63.896H285.02ZM273.5 91.832V24.056H288.572V91.832H273.5ZM310.364 91.832L289.244 62.648L303.068 58.904L328.22 91.832H310.364Z" fill="#4F8F9B"/>
  <path d="M334.812 91.832V24.056H349.885V91.832H334.812Z" fill="#4F8F9B"/>
  <path d="M373.113 91.832V78.584H389.914C394.01 78.584 397.593 77.784 400.665 76.184C403.737 74.52 406.105 72.12 407.77 68.984C409.434 65.848 410.266 62.136 410.266 57.848C410.266 53.56 409.402 49.88 407.674 46.808C406.01 43.736 403.642 41.368 400.57 39.704C397.562 38.04 394.01 37.208 389.914 37.208H372.634V24.056H390.105C395.225 24.056 399.93 24.888 404.217 26.552C408.57 28.152 412.346 30.488 415.546 33.56C418.81 36.568 421.306 40.152 423.034 44.312C424.826 48.408 425.722 52.952 425.722 57.944C425.722 62.872 424.826 67.416 423.034 71.576C421.306 75.736 418.842 79.32 415.642 82.328C412.442 85.336 408.666 87.672 404.314 89.336C400.026 91 395.354 91.832 390.298 91.832H373.113ZM362.938 91.832V24.056H378.01V91.832H362.938Z" fill="#4F8F9B"/>
  <path d="M467.281 92.888C462.353 92.888 457.713 91.992 453.361 90.2C449.073 88.408 445.329 85.944 442.129 82.808C438.929 79.608 436.4 75.896 434.544 71.672C432.752 67.384 431.857 62.776 431.857 57.848C431.857 52.92 432.785 48.344 434.641 44.12C436.497 39.896 439.056 36.216 442.32 33.08C445.648 29.88 449.521 27.416 453.937 25.688C458.353 23.896 463.089 23 468.145 23C473.969 23 479.249 24.056 483.984 26.168C488.784 28.28 492.753 31.192 495.889 34.904L485.616 45.176C483.44 42.36 480.88 40.248 477.936 38.84C474.992 37.432 471.665 36.728 467.953 36.728C463.985 36.728 460.433 37.624 457.297 39.416C454.161 41.144 451.697 43.608 449.905 46.808C448.177 49.944 447.312 53.624 447.312 57.848C447.312 62.072 448.177 65.784 449.905 68.984C451.633 72.184 454.001 74.68 457.009 76.472C460.017 78.264 463.473 79.16 467.376 79.16C471.344 79.16 474.704 78.424 477.457 76.952C480.273 75.416 482.417 73.24 483.888 70.424C485.424 67.544 486.193 64.056 486.193 59.96L496.177 66.68L465.937 66.2V53.432H501.552V55.64C501.552 63.768 500.081 70.616 497.137 76.184C494.257 81.688 490.224 85.848 485.04 88.664C479.921 91.48 474.001 92.888 467.281 92.888Z" fill="#4F8F9B"/>
  <path d="M510.688 91.832V24.056H525.76V91.832H510.688ZM522.208 91.832V78.776H559.359V91.832H522.208ZM522.208 63.512V50.936H556V63.512H522.208ZM522.208 37.016V24.056H558.88V37.016H522.208Z" fill="#4F8F9B"/>
  <path d="M588.414 92.888C582.846 92.888 578.047 91.992 574.015 90.2C570.047 88.344 566.398 85.56 563.07 81.848L572.862 72.152C575.038 74.648 577.439 76.6 580.062 78.008C582.75 79.352 585.855 80.024 589.375 80.024C592.575 80.024 595.039 79.448 596.767 78.296C598.559 77.144 599.455 75.544 599.455 73.496C599.455 71.64 598.879 70.136 597.727 68.984C596.574 67.832 595.039 66.84 593.119 66.008C591.263 65.176 589.183 64.376 586.879 63.608C584.639 62.84 582.398 61.976 580.159 61.016C577.919 59.992 575.839 58.744 573.919 57.272C572.063 55.736 570.559 53.848 569.406 51.608C568.254 49.304 567.679 46.424 567.679 42.968C567.679 38.808 568.671 35.224 570.655 32.216C572.703 29.208 575.519 26.936 579.103 25.4C582.687 23.8 586.815 23 591.487 23C596.223 23 600.543 23.832 604.447 25.496C608.415 27.16 611.679 29.432 614.239 32.312L604.447 42.008C602.399 39.896 600.319 38.328 598.207 37.304C596.159 36.28 593.822 35.768 591.198 35.768C588.574 35.768 586.495 36.28 584.958 37.304C583.422 38.264 582.655 39.672 582.655 41.528C582.655 43.256 583.23 44.664 584.383 45.752C585.535 46.776 587.039 47.672 588.895 48.44C590.815 49.208 592.895 49.976 595.135 50.744C597.439 51.512 599.711 52.408 601.951 53.432C604.19 54.456 606.239 55.768 608.095 57.368C610.015 58.904 611.551 60.888 612.703 63.32C613.855 65.688 614.431 68.632 614.431 72.152C614.431 78.616 612.126 83.704 607.518 87.416C602.91 91.064 596.542 92.888 588.414 92.888Z" fill="#4F8F9B"/>
  <path d="M662.664 92.888C657.096 92.888 652.297 91.992 648.265 90.2C644.297 88.344 640.648 85.56 637.32 81.848L647.112 72.152C649.288 74.648 651.689 76.6 654.312 78.008C657 79.352 660.105 80.024 663.625 80.024C666.825 80.024 669.289 79.448 671.017 78.296C672.809 77.144 673.705 75.544 673.705 73.496C673.705 71.64 673.129 70.136 671.977 68.984C670.824 67.832 669.289 66.84 667.369 66.008C665.513 65.176 663.433 64.376 661.129 63.608C658.889 62.84 656.648 61.976 654.409 61.016C652.169 59.992 650.089 58.744 648.169 57.272C646.313 55.736 644.809 53.848 643.656 51.608C642.504 49.304 641.929 46.424 641.929 42.968C641.929 38.808 642.921 35.224 644.905 32.216C646.953 29.208 649.769 26.936 653.353 25.4C656.937 23.8 661.065 23 665.737 23C670.473 23 674.793 23.832 678.697 25.496C682.665 27.16 685.929 29.432 688.489 32.312L678.697 42.008C676.649 39.896 674.569 38.328 672.457 37.304C670.409 36.28 668.072 35.768 665.448 35.768C662.824 35.768 660.745 36.28 659.208 37.304C657.672 38.264 656.905 39.672 656.905 41.528C656.905 43.256 657.48 44.664 658.633 45.752C659.785 46.776 661.289 47.672 663.145 48.44C665.065 49.208 667.145 49.976 669.385 50.744C671.689 51.512 673.961 52.408 676.201 53.432C678.44 54.456 680.489 55.768 682.345 57.368C684.265 58.904 685.801 60.888 686.953 63.32C688.105 65.688 688.681 68.632 688.681 72.152C688.681 78.616 686.376 83.704 681.768 87.416C677.16 91.064 670.792 92.888 662.664 92.888Z" fill="#4F8F9B"/>
  <path d="M712.358 91.832V25.016H727.43V91.832H712.358ZM691.142 37.208V24.056H748.646V37.208H691.142Z" fill="#4F8F9B"/>
  <path d="M768.583 63.896V52.76H782.886C785.894 52.76 788.199 51.992 789.799 50.456C791.463 48.92 792.294 46.84 792.294 44.216C792.294 41.784 791.495 39.768 789.895 38.168C788.295 36.568 785.99 35.768 782.982 35.768H768.583V24.056H784.711C789.19 24.056 793.126 24.92 796.518 26.648C799.911 28.312 802.567 30.648 804.487 33.656C806.406 36.664 807.367 40.12 807.367 44.024C807.367 47.992 806.406 51.48 804.487 54.488C802.567 57.432 799.878 59.736 796.422 61.4C792.966 63.064 788.903 63.896 784.231 63.896H768.583ZM757.062 91.832V24.056H772.135V91.832H757.062ZM793.927 91.832L772.807 62.648L786.63 58.904L811.782 91.832H793.927Z" fill="#4F8F9B"/>
  <path d="M811.131 91.832L838.011 24.056H851.643L878.235 91.832H862.299L841.947 35.576H847.419L826.779 91.832H811.131ZM826.395 79.544V67.256H863.355V79.544H826.395Z" fill="#4F8F9B"/>
  <path d="M894.42 91.832V25.016H909.492V91.832H894.42ZM873.205 37.208V24.056H930.708V37.208H873.205Z" fill="#4F8F9B"/>
  <path d="M939.125 91.832V24.056H954.197V91.832H939.125ZM950.645 91.832V78.776H987.797V91.832H950.645ZM950.645 63.512V50.936H984.437V63.512H950.645ZM950.645 37.016V24.056H987.317V37.016H950.645Z" fill="#4F8F9B"/>
  <path d="M1028.94 92.888C1024.01 92.888 1019.37 91.992 1015.02 90.2C1010.73 88.408 1006.98 85.944 1003.78 82.808C1000.58 79.608 998.057 75.896 996.201 71.672C994.409 67.384 993.513 62.776 993.513 57.848C993.513 52.92 994.441 48.344 996.297 44.12C998.153 39.896 1000.71 36.216 1003.98 33.08C1007.3 29.88 1011.18 27.416 1015.59 25.688C1020.01 23.896 1024.74 23 1029.8 23C1035.62 23 1040.9 24.056 1045.64 26.168C1050.44 28.28 1054.41 31.192 1057.54 34.904L1047.27 45.176C1045.1 42.36 1042.54 40.248 1039.59 38.84C1036.65 37.432 1033.32 36.728 1029.61 36.728C1025.64 36.728 1022.09 37.624 1018.95 39.416C1015.82 41.144 1013.35 43.608 1011.56 46.808C1009.83 49.944 1008.97 53.624 1008.97 57.848C1008.97 62.072 1009.83 65.784 1011.56 68.984C1013.29 72.184 1015.66 74.68 1018.66 76.472C1021.67 78.264 1025.13 79.16 1029.03 79.16C1033 79.16 1036.36 78.424 1039.11 76.952C1041.93 75.416 1044.07 73.24 1045.54 70.424C1047.08 67.544 1047.85 64.056 1047.85 59.96L1057.83 66.68L1027.59 66.2V53.432H1063.21V55.64C1063.21 63.768 1061.74 70.616 1058.79 76.184C1055.91 81.688 1051.88 85.848 1046.7 88.664C1041.58 91.48 1035.66 92.888 1028.94 92.888Z" fill="#4F8F9B"/>
  <path d="M1089.61 66.584L1063.5 24.056H1080.97L1101.04 58.424H1089.81L1109.87 24.056H1126.96L1100.65 66.584H1089.61ZM1087.79 91.832V59.672H1102.86V91.832H1087.79Z" fill="#4F8F9B"/>
  <!-- Icon: bridge with dots -->
  <path d="M161.404 0H180.066V115H161.404V0Z" fill="#4F8F9B"/>
  <path d="M0 0H18.6623V115H0V0Z" fill="#4F8F9B"/>
  <path d="M70.614 61.2829C70.614 65.8792 66.888 69.6053 62.2917 69.6053C57.6954 69.6053 53.9693 65.8792 53.9693 61.2829C53.9693 56.6866 57.6954 52.9605 62.2917 52.9605C66.888 52.9605 70.614 56.6866 70.614 61.2829Z" fill="#4F8F9B"/>
  <path d="M43.3772 61.2829C43.3772 65.8792 39.6511 69.6053 35.0548 69.6053C30.4585 69.6053 26.7325 65.8792 26.7325 61.2829C26.7325 56.6866 30.4585 52.9605 35.0548 52.9605C39.6511 52.9605 43.3772 56.6866 43.3772 61.2829Z" fill="#4F8F9B"/>
  <path d="M125.088 61.2829C125.088 65.8792 121.362 69.6053 116.765 69.6053C112.169 69.6053 108.443 65.8792 108.443 61.2829C108.443 56.6866 112.169 52.9605 116.765 52.9605C121.362 52.9605 125.088 56.6866 125.088 61.2829Z" fill="#4F8F9B"/>
  <path d="M152.829 61.2829C152.829 65.8792 149.103 69.6053 144.507 69.6053C139.91 69.6053 136.184 65.8792 136.184 61.2829C136.184 56.6866 139.91 52.9605 144.507 52.9605C149.103 52.9605 152.829 56.6866 152.829 61.2829Z" fill="#4F8F9B"/>
  <path d="M97.8509 61.2829C97.8509 65.8792 94.1248 69.6053 89.5285 69.6053C84.9322 69.6053 81.2061 65.8792 81.2061 61.2829C81.2061 56.6866 84.9322 52.9605 89.5285 52.9605C94.1248 52.9605 97.8509 56.6866 97.8509 61.2829Z" fill="#4F8F9B"/>
  <path d="M180.066 72.6316C180.066 63.0935 177.737 53.6487 173.212 44.8367C168.688 36.0246 162.056 28.0178 153.696 21.2733C145.335 14.5288 135.41 9.17883 124.487 5.52875C113.564 1.87867 101.856 0 90.0329 0C78.2096 0 66.5021 1.87867 55.5788 5.52875C44.6555 9.17883 34.7304 14.5288 26.37 21.2733C18.0097 28.0178 11.3779 36.0246 6.85334 44.8367C2.32877 53.6487 0 63.0935 0 72.6316H18.3318C18.3318 65.0356 20.1864 57.5139 23.7898 50.4961C27.3931 43.4783 32.6745 37.1017 39.3326 31.7305C45.9907 26.3593 53.8949 22.0986 62.5941 19.1917C71.2933 16.2849 80.617 14.7887 90.0329 14.7887C99.4488 14.7887 108.773 16.2849 117.472 19.1917C126.171 22.0986 134.075 26.3593 140.733 31.7305C147.391 37.1017 152.673 43.4783 156.276 50.4961C159.879 57.5139 161.734 65.0355 161.734 72.6316H180.066Z" fill="#4F8F9B"/>
</svg>
