<svg width="915" height="70" viewBox="0 0 915 70" fill="none" xmlns="http://www.w3.org/2000/svg">
<path d="M11.52 68.832V57.12H27.456C30.4 57.12 32.704 56.256 34.368 54.528C36.032 52.8 36.864 50.688 36.864 48.192C36.864 46.464 36.48 44.928 35.712 43.584C34.944 42.24 33.856 41.184 32.448 40.416C31.104 39.648 29.44 39.264 27.456 39.264H11.52V27.84H26.208C28.704 27.84 30.72 27.232 32.256 26.016C33.792 24.736 34.56 22.816 34.56 20.256C34.56 17.76 33.792 15.904 32.256 14.688C30.72 13.408 28.704 12.768 26.208 12.768H11.52V1.056H29.088C33.44 1.056 37.12 1.856 40.128 3.456C43.2 5.056 45.536 7.2 47.136 9.888C48.736 12.576 49.536 15.552 49.536 18.816C49.536 22.976 48.192 26.496 45.504 29.376C42.816 32.256 38.848 34.24 33.6 35.328L33.984 30.24C39.68 31.328 44.064 33.536 47.136 36.864C50.272 40.192 51.84 44.288 51.84 49.152C51.84 52.864 50.912 56.224 49.056 59.232C47.264 62.176 44.64 64.512 41.184 66.24C37.792 67.968 33.696 68.832 28.896 68.832H11.52ZM0 68.832V1.056H14.88V68.832H0Z" fill="#4F8F9B"/>
<path d="M73.02 40.896V29.76H87.324C90.332 29.76 92.636 28.992 94.236 27.456C95.9 25.92 96.732 23.84 96.732 21.216C96.732 18.784 95.932 16.768 94.332 15.168C92.732 13.568 90.428 12.768 87.42 12.768H73.02V1.056H89.148C93.628 1.056 97.564 1.92 100.956 3.648C104.348 5.312 107.004 7.648 108.924 10.656C110.844 13.664 111.804 17.12 111.804 21.024C111.804 24.992 110.844 28.48 108.924 31.488C107.004 34.432 104.316 36.736 100.86 38.4C97.404 40.064 93.34 40.896 88.668 40.896H73.02ZM61.5 68.832V1.056H76.572V68.832H61.5ZM98.364 68.832L77.244 39.648L91.068 35.904L116.22 68.832H98.364Z" fill="#4F8F9B"/>
<path d="M122.812 68.832V1.056H137.885V68.832H122.812Z" fill="#4F8F9B"/>
<path d="M161.113 68.832V55.584H177.913C182.009 55.584 185.593 54.784 188.665 53.184C191.737 51.52 194.105 49.12 195.77 45.984C197.434 42.848 198.266 39.136 198.266 34.848C198.266 30.56 197.402 26.88 195.674 23.808C194.01 20.736 191.642 18.368 188.57 16.704C185.562 15.04 182.009 14.208 177.913 14.208H160.633V1.056H178.105C183.226 1.056 187.929 1.888 192.217 3.552C196.569 5.152 200.346 7.488 203.546 10.56C206.81 13.568 209.305 17.152 211.033 21.312C212.825 25.408 213.722 29.952 213.722 34.944C213.722 39.872 212.825 44.416 211.033 48.576C209.305 52.736 206.842 56.32 203.642 59.328C200.442 62.336 196.666 64.672 192.314 66.336C188.026 68 183.354 68.832 178.298 68.832H161.113ZM150.938 68.832V1.056H166.01V68.832H150.938Z" fill="#4F8F9B"/>
<path d="M255.281 69.888C250.353 69.888 245.713 68.992 241.361 67.2C237.073 65.408 233.328 62.944 230.128 59.808C226.928 56.608 224.4 52.896 222.544 48.672C220.752 44.384 219.857 39.776 219.857 34.848C219.857 29.92 220.785 25.344 222.641 21.12C224.497 16.896 227.056 13.216 230.32 10.08C233.648 6.88 237.521 4.416 241.937 2.688C246.353 0.896 251.089 0 256.145 0C261.969 0 267.248 1.056 271.984 3.168C276.784 5.28 280.753 8.192 283.889 11.904L273.616 22.176C271.44 19.36 268.88 17.248 265.936 15.84C262.992 14.432 259.664 13.728 255.952 13.728C251.984 13.728 248.433 14.624 245.297 16.416C242.161 18.144 239.696 20.608 237.904 23.808C236.176 26.944 235.312 30.624 235.312 34.848C235.312 39.072 236.176 42.784 237.904 45.984C239.632 49.184 242 51.68 245.008 53.472C248.017 55.264 251.472 56.16 255.376 56.16C259.344 56.16 262.705 55.424 265.457 53.952C268.273 52.416 270.416 50.24 271.888 47.424C273.424 44.544 274.193 41.056 274.193 36.96L284.177 43.68L253.937 43.2V30.432H289.552V32.64C289.552 40.768 288.081 47.616 285.137 53.184C282.257 58.688 278.224 62.848 273.04 65.664C267.92 68.48 262.001 69.888 255.281 69.888Z" fill="#4F8F9B"/>
<path d="M298.688 68.832V1.056H313.759V68.832H298.688ZM310.207 68.832V55.776H347.359V68.832H310.207ZM310.207 40.512V27.936H344V40.512H310.207ZM310.207 14.016V1.056H346.88V14.016H310.207Z" fill="#4F8F9B"/>
<path d="M376.414 69.888C370.846 69.888 366.046 68.992 362.014 67.2C358.046 65.344 354.398 62.56 351.07 58.848L360.862 49.152C363.038 51.648 365.439 53.6 368.062 55.008C370.751 56.352 373.855 57.024 377.375 57.024C380.575 57.024 383.039 56.448 384.767 55.296C386.559 54.144 387.454 52.544 387.454 50.496C387.454 48.64 386.879 47.136 385.727 45.984C384.575 44.832 383.038 43.84 381.118 43.008C379.262 42.176 377.183 41.376 374.879 40.608C372.639 39.84 370.399 38.976 368.159 38.016C365.919 36.992 363.838 35.744 361.918 34.272C360.062 32.736 358.558 30.848 357.406 28.608C356.254 26.304 355.678 23.424 355.678 19.968C355.678 15.808 356.671 12.224 358.655 9.216C360.703 6.208 363.519 3.936 367.103 2.4C370.687 0.799999 374.815 0 379.487 0C384.223 0 388.543 0.831999 392.447 2.496C396.415 4.16 399.678 6.432 402.238 9.312L392.447 19.008C390.399 16.896 388.319 15.328 386.207 14.304C384.159 13.28 381.822 12.768 379.198 12.768C376.574 12.768 374.494 13.28 372.958 14.304C371.422 15.264 370.655 16.672 370.655 18.528C370.655 20.256 371.231 21.664 372.383 22.752C373.535 23.776 375.038 24.672 376.895 25.44C378.815 26.208 380.894 26.976 383.134 27.744C385.438 28.512 387.71 29.408 389.951 30.432C392.191 31.456 394.239 32.768 396.095 34.368C398.015 35.904 399.551 37.888 400.703 40.32C401.855 42.688 402.431 45.632 402.431 49.152C402.431 55.616 400.126 60.704 395.518 64.416C390.91 68.064 384.542 69.888 376.414 69.888Z" fill="#4F8F9B"/>
<path d="M450.664 69.888C445.096 69.888 440.296 68.992 436.264 67.2C432.296 65.344 428.648 62.56 425.32 58.848L435.112 49.152C437.288 51.648 439.689 53.6 442.312 55.008C445.001 56.352 448.105 57.024 451.625 57.024C454.825 57.024 457.289 56.448 459.017 55.296C460.809 54.144 461.704 52.544 461.704 50.496C461.704 48.64 461.129 47.136 459.977 45.984C458.825 44.832 457.288 43.84 455.368 43.008C453.512 42.176 451.433 41.376 449.129 40.608C446.889 39.84 444.649 38.976 442.409 38.016C440.169 36.992 438.088 35.744 436.168 34.272C434.312 32.736 432.808 30.848 431.656 28.608C430.504 26.304 429.928 23.424 429.928 19.968C429.928 15.808 430.921 12.224 432.905 9.216C434.953 6.208 437.769 3.936 441.353 2.4C444.937 0.799999 449.065 0 453.737 0C458.473 0 462.793 0.831999 466.697 2.496C470.665 4.16 473.928 6.432 476.488 9.312L466.697 19.008C464.649 16.896 462.569 15.328 460.457 14.304C458.409 13.28 456.072 12.768 453.448 12.768C450.824 12.768 448.744 13.28 447.208 14.304C445.672 15.264 444.905 16.672 444.905 18.528C444.905 20.256 445.481 21.664 446.633 22.752C447.785 23.776 449.288 24.672 451.145 25.44C453.065 26.208 455.144 26.976 457.384 27.744C459.688 28.512 461.96 29.408 464.201 30.432C466.441 31.456 468.489 32.768 470.345 34.368C472.265 35.904 473.801 37.888 474.953 40.32C476.105 42.688 476.681 45.632 476.681 49.152C476.681 55.616 474.376 60.704 469.768 64.416C465.16 68.064 458.792 69.888 450.664 69.888Z" fill="#4F8F9B"/>
<path d="M500.358 68.832V2.016H515.43V68.832H500.358ZM479.142 14.208V1.056H536.646V14.208H479.142Z" fill="#4F8F9B"/>
<path d="M556.583 40.896V29.76H570.886C573.894 29.76 576.199 28.992 577.799 27.456C579.463 25.92 580.294 23.84 580.294 21.216C580.294 18.784 579.495 16.768 577.895 15.168C576.295 13.568 573.99 12.768 570.982 12.768H556.583V1.056H572.711C577.191 1.056 581.126 1.92 584.518 3.648C587.91 5.312 590.567 7.648 592.487 10.656C594.407 13.664 595.367 17.12 595.367 21.024C595.367 24.992 594.407 28.48 592.487 31.488C590.567 34.432 587.878 36.736 584.422 38.4C580.966 40.064 576.903 40.896 572.231 40.896H556.583ZM545.062 68.832V1.056H560.135V68.832H545.062ZM581.927 68.832L560.807 39.648L574.63 35.904L599.782 68.832H581.927Z" fill="#4F8F9B"/>
<path d="M599.131 68.832L626.011 1.056H639.643L666.235 68.832H650.299L629.947 12.576H635.419L614.779 68.832H599.131ZM614.395 56.544V44.256H651.355V56.544H614.395Z" fill="#4F8F9B"/>
<path d="M682.42 68.832V2.016H697.492V68.832H682.42ZM661.205 14.208V1.056H718.708V14.208H661.205Z" fill="#4F8F9B"/>
<path d="M727.125 68.832V1.056H742.197V68.832H727.125ZM738.645 68.832V55.776H775.797V68.832H738.645ZM738.645 40.512V27.936H772.437V40.512H738.645ZM738.645 14.016V1.056H775.317V14.016H738.645Z" fill="#4F8F9B"/>
<path d="M816.937 69.888C812.009 69.888 807.369 68.992 803.017 67.2C798.729 65.408 794.985 62.944 791.785 59.808C788.585 56.608 786.057 52.896 784.201 48.672C782.409 44.384 781.513 39.776 781.513 34.848C781.513 29.92 782.441 25.344 784.297 21.12C786.153 16.896 788.713 13.216 791.977 10.08C795.305 6.88 799.177 4.416 803.593 2.688C808.009 0.896 812.745 0 817.801 0C823.625 0 828.905 1.056 833.641 3.168C838.441 5.28 842.409 8.192 845.545 11.904L835.273 22.176C833.097 19.36 830.537 17.248 827.593 15.84C824.649 14.432 821.321 13.728 817.609 13.728C813.641 13.728 810.089 14.624 806.953 16.416C803.817 18.144 801.353 20.608 799.561 23.808C797.833 26.944 796.969 30.624 796.969 34.848C796.969 39.072 797.833 42.784 799.561 45.984C801.289 49.184 803.657 51.68 806.665 53.472C809.673 55.264 813.129 56.16 817.033 56.16C821.001 56.16 824.361 55.424 827.113 53.952C829.929 52.416 832.073 50.24 833.545 47.424C835.081 44.544 835.849 41.056 835.849 36.96L845.833 43.68L815.593 43.2V30.432H851.209V32.64C851.209 40.768 849.737 47.616 846.793 53.184C843.913 58.688 839.881 62.848 834.697 65.664C829.577 68.48 823.657 69.888 816.937 69.888Z" fill="#4F8F9B"/>
<path d="M877.613 43.584L851.501 1.056H868.973L889.037 35.424H877.805L897.869 1.056H914.957L888.653 43.584H877.613ZM875.789 68.832V36.672H890.861V68.832H875.789Z" fill="#4F8F9B"/>
</svg>
