<svg width="357" height="228" viewBox="0 0 357 228" fill="none" xmlns="http://www.w3.org/2000/svg">
<path d="M320 0H357V228H320V0Z" fill="#4F8F9B"/>
<path d="M0 0H37V228H0V0Z" fill="#4F8F9B"/>
<path d="M140 121.5C140 130.613 132.613 138 123.5 138C114.387 138 107 130.613 107 121.5C107 112.387 114.387 105 123.5 105C132.613 105 140 112.387 140 121.5Z" fill="#4F8F9B"/>
<path d="M86 121.5C86 130.613 78.6127 138 69.5 138C60.3873 138 53 130.613 53 121.5C53 112.387 60.3873 105 69.5 105C78.6127 105 86 112.387 86 121.5Z" fill="#4F8F9B"/>
<path d="M248 121.5C248 130.613 240.613 138 231.5 138C222.387 138 215 130.613 215 121.5C215 112.387 222.387 105 231.5 105C240.613 105 248 112.387 248 121.5Z" fill="#4F8F9B"/>
<path d="M303 121.5C303 130.613 295.613 138 286.5 138C277.387 138 270 130.613 270 121.5C270 112.387 277.387 105 286.5 105C295.613 105 303 112.387 303 121.5Z" fill="#4F8F9B"/>
<path d="M194 121.5C194 130.613 186.613 138 177.5 138C168.387 138 161 130.613 161 121.5C161 112.387 168.387 105 177.5 105C186.613 105 194 112.387 194 121.5Z" fill="#4F8F9B"/>
<path d="M357 144C357 125.09 352.383 106.364 343.413 88.8936C334.442 71.4227 321.294 55.5483 304.719 42.1766C288.143 28.805 268.466 18.198 246.809 10.9613C225.152 3.72467 201.941 -8.26598e-07 178.5 0C155.059 8.26598e-07 131.848 3.72467 110.191 10.9614C88.5344 18.198 68.8567 28.805 52.2814 42.1766C35.7062 55.5483 22.558 71.4227 13.5875 88.8936C4.61703 106.364 -2.04927e-06 125.09 0 144H36.3449C36.3449 128.94 40.0218 114.028 47.1658 100.114C54.3098 86.2004 64.7808 73.5582 77.9811 62.9092C91.1815 52.2602 106.853 43.8129 124.1 38.0497C141.347 32.2865 159.832 29.3202 178.5 29.3202C197.168 29.3202 215.653 32.2865 232.9 38.0497C250.147 43.8129 265.819 52.2602 279.019 62.9092C292.219 73.5582 302.69 86.2004 309.834 100.114C316.978 114.028 320.655 128.94 320.655 144H357Z" fill="#4F8F9B"/>
</svg>
